<svg id="Cloudocs" data-name="Cloudocs" xmlns="http://www.w3.org/2000/svg" viewBox="0 0 211.44 211.44">
  <defs>
    <style>.cls-1{fill:#0081ff;}.cls-2{fill:#fff;}</style>
  </defs>
  <title>logo</title>
  <circle class="cls-1" cx="105.72" cy="105.72" r="105.72" />
  <path class="cls-2" d="M142.85,187.08h-36a2.57,2.57,0,0,0,0,5.14h36a2.57,2.57,0,0,0,0-5.14Zm0-10.27h-36a2.57,2.57,0,0,0,0,5.14h36a2.57,2.57,0,1,0,0-5.14Zm0-10.28h-36a2.57,2.57,0,0,0,0,5.14h36a2.57,2.57,0,0,0,0-5.14Z" transform="translate(-22.28 -22.28)" />
  <path class="cls-2" d="M174.71,99.74c-5.65-21.58-24.66-36-47.27-36a49.12,49.12,0,0,0-48.81,48.81v2.57C64.25,116.18,53,128.51,53,143.41A28.5,28.5,0,0,0,81.2,171.67H96.62a2.42,2.42,0,0,0,2.56-2.57,7.49,7.49,0,0,1,1-3.6,2.3,2.3,0,0,0,0-2.56,12.24,12.24,0,0,1-1-4.11,7.91,7.91,0,0,1,7.71-7.71h36a7.91,7.91,0,0,1,7.71,7.71,7.35,7.35,0,0,1-1,3.59,2.35,2.35,0,0,0,0,2.57,9.43,9.43,0,0,1,1,3.6,2.43,2.43,0,0,0,2.57,2.57h18a35.74,35.74,0,0,0,36-36C207.07,117.21,193.2,101.8,174.71,99.74Z" transform="translate(-22.28 -22.28)" />
  <path class="cls-2" d="M142.85,156.26h-36a2.57,2.57,0,1,0,0,5.13h36a2.57,2.57,0,1,0,0-5.13Z" transform="translate(-22.28 -22.28)" />
</svg>